<svg xmlns="http://www.w3.org/2000/svg" viewBox="0 0 64 64" fill="none">
  <rect width="64" height="64" rx="14" fill="#0f5132"/>
  <path d="M24 10h16v6l-3 4v9.5l10.5 15.2A8 8 0 0 1 40.9 58H23.1a8 8 0 0 1-6.6-13.3L27 29.5V20l-3-4v-6Z" fill="#fef6dd"/>
  <path d="M26 39h12c3.9 0 7 3.1 7 7v1a5 5 0 0 1-5 5H24a5 5 0 0 1-5-5v-1c0-3.9 3.1-7 7-7Z" fill="#f59e0b"/>
  <circle cx="26" cy="45" r="2" fill="#0f5132"/>
  <circle cx="33" cy="47" r="2" fill="#0f5132"/>
  <circle cx="38" cy="43" r="1.5" fill="#0f5132"/>
</svg>
